<?xml version="1.0" encoding="UTF-8" standalone="no"?>
<svg width="100px" height="16px" viewBox="0 0 100 16" version="1.1" xmlns="http://www.w3.org/2000/svg" xmlns:xlink="http://www.w3.org/1999/xlink" xmlns:sketch="http://www.bohemiancoding.com/sketch/ns">
    <!-- Generator: Sketch 3.3.2 (12043) - http://www.bohemiancoding.com/sketch -->
    <title>Untitled 10</title>
    <desc>Created with Sketch.</desc>
    <defs></defs>
    <g id="Page-1" stroke="none" stroke-width="1" fill="none" fill-rule="evenodd" sketch:type="MSPage">
        <g id="commentary-logo-black" sketch:type="MSLayerGroup" fill="#3F4040">
            <g id="Page-1" sketch:type="MSShapeGroup">
                <g id="commentary-logo">
                    <g id="Page-1">
                        <path d="M6.35427445,12.0029338 C2.71042587,12.0029338 0.155063091,9.46334385 0.155063091,6.07201893 C0.155063091,2.55451104 2.74212934,0.141104101 6.33834385,0.141104101 C8.76768139,0.204195584 9.22509464,1.37138801 10.029511,1.48179811 C10.6919716,1.4344795 10.8339274,0.819337539 10.8971767,0.235741325 L11.1967035,0.235741325 L11.1967035,5.22028391 L10.9285647,5.22028391 C10.1399211,3.02769716 9.52477918,0.677381703 7.23755521,0.677381703 C5.21847003,0.677381703 4.54023659,3.45356467 4.54023659,5.83542587 C4.54023659,8.48542587 5.48660883,11.3247003 7.67919558,11.3247003 C9.68250789,11.3247003 10.7867666,9.60529968 11.1337697,7.57044164 L11.4019085,7.61791798 C11.1493849,9.85766562 9.79291798,12.0029338 6.35427445,12.0029338" id="Fill-1"></path>
                        <path d="M17.2216877,6.37176656 C17.1428233,5.36230284 16.9376183,4.43154574 16.1489748,4.43154574 C15.4076498,4.43154574 15.1868297,5.36230284 15.1079653,6.37176656 C15.0606467,6.93958991 15.0448738,7.64936909 15.0448738,8.05962145 C15.0448738,8.51687697 15.0606467,9.17949527 15.1079653,9.77886435 C15.1868297,10.7883281 15.4076498,11.7190852 16.1649054,11.7190852 C16.9062303,11.7190852 17.1428233,10.7883281 17.2216877,9.77886435 C17.2690063,9.17949527 17.2846215,8.51687697 17.2846215,8.05962145 C17.2846215,7.63359621 17.2690063,6.97113565 17.2216877,6.37176656 M16.1649054,11.9714511 C13.7828864,11.9714511 11.9059148,10.315142 11.9059148,8.07523659 C11.9059148,5.81971609 13.830205,4.17917981 16.1649054,4.17917981 C18.4519716,4.17917981 20.4237382,5.78817035 20.4237382,8.07523659 C20.4237382,10.3782334 18.3888801,11.9714511 16.1649054,11.9714511" id="Fill-3"></path>
                        <path d="M30.6444953,11.8137855 L30.6444953,11.5612618 C31.4173659,11.4983281 31.3542744,11.3563722 31.4015931,10.5677287 C31.4173659,10.3311356 31.4173659,10.0626814 31.4173659,9.8418612 L31.4173659,6.6555836 C31.4173659,6.48208202 31.4173659,6.22971609 31.4015931,6.0088959 C31.3700473,5.15716088 31.1965457,4.74706625 30.6444953,4.74706625 C30.4392902,4.74706625 29.7610568,4.85747634 29.6033281,6.05621451 L29.6033281,9.8418612 C29.6033281,10.0626814 29.6033281,10.315205 29.6191009,10.5677287 C29.6664196,11.3563722 29.6350315,11.4983281 30.2815615,11.5612618 L30.2815615,11.8137855 L25.8019085,11.8137855 L25.8019085,11.5612618 C26.5590063,11.5141009 26.5116877,11.3563722 26.5590063,10.5677287 C26.5747792,10.3311356 26.5747792,10.0626814 26.5747792,9.8418612 L26.5747792,6.6555836 C26.5747792,6.48208202 26.5747792,6.22971609 26.5590063,6.0088959 C26.5274606,5.15716088 26.353959,4.74706625 25.8019085,4.74706625 C25.1077445,4.74706625 24.8555363,5.45684543 24.7607413,5.83539432 L24.7607413,9.8418612 C24.7607413,10.0626814 24.7607413,10.3311356 24.7766719,10.5677287 C24.8239905,11.3563722 24.7922871,11.4983281 25.4391325,11.5612618 L25.4391325,11.8137855 L20.7227287,11.8137855 L20.7227287,11.5612618 C20.7858202,11.5612618 20.9435489,11.5612618 21.0697319,11.545489 C21.7164196,11.4666246 21.6692587,11.261735 21.7164196,10.5677287 C21.7321924,10.3311356 21.7321924,10.0626814 21.7321924,9.8418612 L21.7321924,6.07198738 C21.7321924,5.88271293 21.7321924,5.61457413 21.7164196,5.42529968 C21.6692587,4.87324921 21.6533281,4.68397476 21.053959,4.62072555 C20.9593218,4.60511041 20.7542744,4.58933754 20.691183,4.58933754 L20.691183,4.33697161 L24.6978076,4.33697161 L24.6978076,5.50416404 L24.7134227,5.50416404 C24.8396057,4.90479495 25.4391325,4.1792429 26.9534858,4.1792429 C28.0732019,4.1792429 29.0355047,4.68397476 29.4773028,5.67766562 C29.6350315,5.07829653 30.0922871,4.1792429 31.7959148,4.1792429 C33.1683123,4.1792429 34.4460726,5.03097792 34.4460726,6.32435331 L34.4460726,9.8418612 C34.4460726,10.0626814 34.4460726,10.2992744 34.4616877,10.5677287 C34.5090063,11.261735 34.4460726,11.4666246 35.1085331,11.545489 C35.1873975,11.5612618 35.3291956,11.5612618 35.3924448,11.5612618 L35.3924448,11.8137855 L30.6444953,11.8137855 L30.6444953,11.8137855 Z" id="Fill-5"></path>
                        <path d="M45.4394164,11.8137855 L45.4394164,11.5612618 C46.2122871,11.4983281 46.1493533,11.3563722 46.1966719,10.5677287 C46.2122871,10.3311356 46.2122871,10.0626814 46.2122871,9.8418612 L46.2122871,6.6555836 C46.2122871,6.48208202 46.2122871,6.22971609 46.1966719,6.0088959 C46.1651262,5.15716088 45.9916246,4.74706625 45.4394164,4.74706625 C45.2343691,4.74706625 44.5561356,4.85747634 44.3984069,6.05621451 L44.3984069,9.8418612 C44.3984069,10.0626814 44.3984069,10.315205 44.4141798,10.5677287 C44.4614984,11.3563722 44.4299527,11.4983281 45.0766404,11.5612618 L45.0766404,11.8137855 L40.5969874,11.8137855 L40.5969874,11.5612618 C41.3540852,11.5141009 41.3067666,11.3563722 41.3540852,10.5677287 C41.369858,10.3311356 41.369858,10.0626814 41.369858,9.8418612 L41.369858,6.6555836 C41.369858,6.48208202 41.369858,6.22971609 41.3540852,6.0088959 C41.3223817,5.15716088 41.1490379,4.74706625 40.5969874,4.74706625 C39.9028233,4.74706625 39.6504574,5.45684543 39.5558202,5.83539432 L39.5558202,9.8418612 C39.5558202,10.0626814 39.5558202,10.3311356 39.5715931,10.5677287 C39.6189117,11.3563722 39.5872082,11.4983281 40.2340536,11.5612618 L40.2340536,11.8137855 L35.5178076,11.8137855 L35.5178076,11.5612618 C35.5807413,11.5612618 35.73847,11.5612618 35.8648107,11.545489 C36.5113407,11.4666246 36.4641798,11.261735 36.5113407,10.5677287 C36.5272713,10.3311356 36.5272713,10.0626814 36.5272713,9.8418612 L36.5272713,6.07198738 C36.5272713,5.88271293 36.5272713,5.61457413 36.5113407,5.42529968 C36.4641798,4.87324921 36.4484069,4.68397476 35.8488801,4.62072555 C35.7544006,4.60511041 35.5491956,4.58933754 35.4861041,4.58933754 L35.4861041,4.33697161 L39.4927287,4.33697161 L39.4927287,5.50416404 L39.5083438,5.50416404 C39.6346845,4.90479495 40.2340536,4.1792429 41.7484069,4.1792429 C42.8682808,4.1792429 43.8305836,4.68397476 44.272224,5.67766562 C44.4299527,5.07829653 44.8873659,4.1792429 46.5909937,4.1792429 C47.9632334,4.1792429 49.2409937,5.03097792 49.2409937,6.32435331 L49.2409937,9.8418612 C49.2409937,10.0626814 49.2409937,10.2992744 49.2567666,10.5677287 C49.3040852,11.261735 49.2409937,11.4666246 49.9034543,11.545489 C49.9823186,11.5612618 50.1242744,11.5612618 50.1875237,11.5612618 L50.1875237,11.8137855 L45.4394164,11.8137855 L45.4394164,11.8137855 Z" id="Fill-7"></path>
                        <path d="M55.5337539,6.38755521 C55.4391167,5.20458991 55.2654574,4.43156151 54.4768139,4.43156151 C53.7512618,4.43156151 53.5935331,5.26752366 53.4990536,6.38755521 C53.4671924,6.75033123 53.4671924,7.144653 53.4671924,7.39701893 L55.565142,7.39701893 C55.565142,7.05001577 55.565142,6.78187697 55.5337539,6.38755521 M54.6187697,11.9714669 C52.2369085,11.9714669 50.3599369,10.5676814 50.3599369,8.07525237 C50.3599369,5.72493691 52.3157729,4.17919558 54.5716088,4.17919558 C57.1427445,4.17919558 58.3100946,5.88282334 58.3100946,7.71247634 L53.4671924,7.71247634 C53.4832808,8.31200315 53.5621451,9.27414826 53.8615142,9.96815457 C54.1769716,10.6937066 54.7764984,11.2459148 55.7072555,11.2459148 C57.1268139,11.2459148 57.7580442,10.2362934 58.0891167,9.33723975 L58.3414826,9.44749211 C57.7580442,11.0249369 56.4012618,11.9714669 54.6187697,11.9714669" id="Fill-9"></path>
                        <path d="M63.7670662,11.8137855 L63.7670662,11.5612618 C64.5874132,11.5297161 64.5399369,11.3405994 64.5874132,10.5677287 C64.6031861,10.3467508 64.6031861,10.1101577 64.6031861,9.8418612 L64.6031861,6.62419558 C64.6031861,6.45069401 64.6031861,6.19817035 64.5874132,5.97735016 C64.5560252,5.12561514 64.2877287,4.76283912 63.7199054,4.76283912 C63.0101262,4.76283912 62.6787382,5.50416404 62.5683281,5.85116719 L62.5683281,9.8418612 C62.5683281,10.1101577 62.5683281,10.315205 62.5841009,10.5677287 C62.6315773,11.3563722 62.5998738,11.5297161 63.4044479,11.5612618 L63.4044479,11.8137855 L58.4989274,11.8137855 L58.4989274,11.5612618 C58.5777918,11.5612618 58.7982965,11.545489 58.8771609,11.545489 C59.524164,11.4823975 59.4766877,11.261735 59.524164,10.5677287 C59.5397792,10.3311356 59.5397792,10.0943849 59.5397792,9.8418612 L59.5397792,6.07198738 C59.5397792,5.88271293 59.5397792,5.61457413 59.524164,5.42529968 C59.4766877,4.87324921 59.4766877,4.69974763 58.861388,4.62072555 C58.7669085,4.60511041 58.5777918,4.58933754 58.4989274,4.58933754 L58.4989274,4.33697161 L62.5052366,4.33697161 L62.5052366,5.51993691 L62.5210095,5.51993691 C62.6946688,4.96788644 63.2624921,4.1792429 64.8714826,4.1792429 C66.3699054,4.1792429 67.631735,5.17293375 67.631735,6.2929653 L67.631735,9.8418612 C67.631735,10.1101577 67.631735,10.3467508 67.6475079,10.5677287 C67.6948265,11.261735 67.6475079,11.4823975 68.2943533,11.545489 C68.3889905,11.5612618 68.5623344,11.5612618 68.6411987,11.5612618 L68.6411987,11.8137855 L63.7670662,11.8137855 L63.7670662,11.8137855 Z" id="Fill-11"></path>
                        <path d="M72.3318612,11.9715142 C71.0225552,11.9715142 69.5712934,11.261735 69.5712934,9.81047319 L69.5712934,4.93634069 L68.4985804,4.93634069 L68.4985804,4.51047319 C69.2400631,4.30526814 70.076183,3.72167192 70.770347,3.04343849 C71.4643533,2.36520505 71.9375394,1.67119874 72.1580442,1.19785489 L72.5998423,1.19785489 L72.5998423,4.33697161 L74.6664038,4.33697161 L74.4454259,4.93634069 L72.5998423,4.93634069 L72.5998423,9.22687697 C72.5998423,9.40037855 72.6156151,9.81047319 72.6315457,10.0312934 C72.6944795,10.9934385 73.1362776,11.4035331 73.6883281,11.4035331 C74.5875394,11.4035331 74.8555205,10.41 74.8555205,9.74722397 L75.0921136,9.74722397 C75.0763407,10.4729338 74.9660883,11.9715142 72.3318612,11.9715142" id="Fill-13"></path>
                        <path d="M79.5873817,7.55481073 L79.5556782,7.53903785 C79.3033123,7.88604101 78.7987382,7.88604101 78.4832808,8.21727129 C78.2466877,8.45386435 78.151735,9.14802839 78.151735,9.74723975 C78.151735,10.4100158 78.1835962,11.3089117 78.7670347,11.3089117 C79.1930599,11.3089117 79.5242902,10.8672713 79.5873817,10.5677445 L79.5873817,7.55481073 L79.5873817,7.55481073 Z M83.3570978,11.4352524 C82.9157729,11.8295741 82.3637224,11.9555994 81.622082,11.9555994 C80.7545741,11.9555994 79.9503155,11.4824132 79.7764984,10.7095426 L79.7608833,10.7095426 C79.4454259,11.5455047 78.6252366,11.97153 77.3949527,11.97153 C76.0698738,11.97153 75.1231861,11.2142744 75.1231861,9.88935331 C75.1231861,8.80086751 75.7384858,8.18572555 76.6219243,7.94913249 C77.2528391,7.79140379 77.9470032,7.88604101 78.8301262,7.64944795 C79.2719243,7.53903785 79.5556782,7.42862776 79.5873817,7.03430599 C79.5873817,6.46648265 79.5873817,5.81963722 79.5716088,5.59881703 C79.5399054,4.85749211 79.4138801,4.44739748 78.7512618,4.44739748 C78.3569401,4.44739748 78.0100946,4.68399054 78.0100946,4.95212934 C78.0100946,5.39376972 78.6881703,5.23604101 78.6881703,6.16664038 C78.6881703,6.71884858 78.2624606,7.41285489 76.8429022,7.41285489 C76.164511,7.41285489 75.5018927,7.01853312 75.5018927,6.34014196 C75.5018927,4.96790221 77.3317035,4.19503155 79.2088328,4.19503155 C80.5495268,4.19503155 82.6317035,4.73130915 82.6317035,6.35591483 L82.6317035,9.96821767 C82.6317035,10.4414038 82.6634069,11.025 83.1205047,11.025 C83.6886435,11.025 83.7988959,10.0944006 83.7988959,9.44755521 L84.0198738,9.44755521 C84.0198738,10.4256309 83.7988959,11.0409306 83.3570978,11.4352524 L83.3570978,11.4352524 L83.3570978,11.4352524 Z" id="Fill-15"></path>
                        <path d="M90.1077603,7.71253943 C89.3191167,7.71253943 88.6407256,7.05007886 88.6407256,6.34014196 C88.6407256,5.50417981 89.0982965,5.22026814 89.0982965,4.99944795 C89.0982965,4.95212934 89.0667508,4.88903785 88.9405678,4.88903785 C88.341041,4.88903785 87.9153312,5.88272871 87.9153312,6.34014196 L87.9153312,9.93667192 C87.9153312,10.1574921 87.9153312,10.4729495 87.9309464,10.7254732 C87.9626498,11.2775237 87.9784227,11.4666404 88.5935647,11.5297319 C88.7356782,11.5455047 88.924795,11.5612776 89.0667508,11.5612776 L89.0667508,11.8138013 L83.7982965,11.8138013 L83.7982965,11.5612776 C83.8929338,11.5612776 84.1295268,11.5612776 84.2240063,11.5455047 C84.8710095,11.4824132 84.8235331,11.2617508 84.8710095,10.5677445 C84.8866246,10.2992902 84.8866246,10.0626972 84.8866246,9.84187697 L84.8866246,6.07200315 C84.8866246,5.88272871 84.8866246,5.66190852 84.8710095,5.42531546 C84.8235331,4.87326498 84.8077603,4.68399054 84.2083912,4.62074132 C84.0823659,4.60512618 83.8771609,4.58935331 83.7982965,4.58935331 L83.7982965,4.33698738 L87.8837855,4.33698738 L87.8837855,5.64613565 L87.8995584,5.64613565 C88.0886751,5.09408517 88.6568139,4.24235016 90.013123,4.24235016 C91.0541325,4.24235016 91.8270032,5.0783123 91.8270032,6.02468454 C91.8270032,6.97121451 91.0702208,7.71253943 90.1077603,7.71253943" id="Fill-17"></path>
                        <path d="M99.3663091,4.6523817 C99.0033754,4.71547319 98.7984858,4.98361199 98.4830284,5.74070978 C98.0570032,6.7661041 96.9686751,9.76294953 95.9434385,11.9399211 C94.9182019,14.1640536 94.2555836,15.4575868 92.6939117,15.4575868 C91.9052681,15.4575868 91.0060568,14.8738328 91.0060568,13.9274606 C91.0060568,13.0755678 91.6372871,12.4131073 92.5205678,12.4131073 C93.4669401,12.4131073 93.9557413,13.0440221 93.9557413,13.7222555 C93.9557413,14.5426025 93.3409148,14.6528549 93.3409148,14.9211514 C93.3409148,14.96847 93.35653,15.0157886 93.4197792,15.0157886 C93.5458044,15.0157886 93.9718297,14.8265142 94.3186751,14.3533281 C94.8549527,13.6276183 95.1390221,13.0284069 95.4388644,12.3342429 C94.3503785,9.77888013 92.7571609,6.05616719 92.4573186,5.4094795 C92.2207256,4.9205205 92.1104732,4.69970032 91.8107886,4.63660883 C91.7000631,4.62083596 91.2901262,4.58929022 91.195489,4.58929022 L91.195489,4.33692429 L96.3533754,4.33692429 L96.3533754,4.58929022 C96.274511,4.58929022 95.9590536,4.60506309 95.8488013,4.62083596 C95.6754574,4.6523817 95.5965931,4.77856467 95.5965931,4.93629338 C95.5965931,5.12556782 95.6910726,5.42525237 95.7857098,5.66184543 C95.9909148,6.18250789 96.6218297,7.69670347 97.0317666,8.65884858 C97.4418612,7.63361199 97.9781388,6.18250789 98.072776,5.91421136 C98.2147319,5.48834385 98.2779811,5.20443218 98.2779811,5.0309306 C98.2779811,4.68392744 98.072776,4.6523817 97.8204101,4.62083596 C97.6943849,4.60506309 97.3789274,4.58929022 97.315836,4.58929022 L97.315836,4.33692429 L99.9500631,4.33692429 L99.9500631,4.58929022 C99.9025868,4.58929022 99.5398107,4.62083596 99.3663091,4.6523817" id="Fill-19"></path>
                    </g>
                </g>
            </g>
        </g>
    </g>
</svg>