<?xml version="1.0" encoding="UTF-8" standalone="no"?>
<svg width="634px" height="99px" viewBox="0 0 634 99" version="1.1" xmlns="http://www.w3.org/2000/svg" xmlns:xlink="http://www.w3.org/1999/xlink" xmlns:sketch="http://www.bohemiancoding.com/sketch/ns">
    <!-- Generator: Sketch 3.3.2 (12043) - http://www.bohemiancoding.com/sketch -->
    <title>commentary</title>
    <desc>Created with Sketch.</desc>
    <defs></defs>
    <g id="Page-1" stroke="none" stroke-width="1" fill="none" fill-rule="evenodd" sketch:type="MSPage">
        <path d="M40.2861,76.0986 C17.1841,76.0986 0.9831,59.9976 0.9831,38.4966 C0.9831,16.1956 17.3851,0.8946 40.1851,0.8946 C55.5871,1.2946 58.4871,8.6946 63.5871,9.3946 C67.7871,9.0946 68.6871,5.1946 69.0881,1.4946 L70.9871,1.4946 L70.9871,33.0966 L69.2871,33.0966 C64.2871,19.1956 60.3871,4.2946 45.8861,4.2946 C33.0851,4.2946 28.7851,21.8956 28.7851,36.9966 C28.7851,53.7976 34.7851,71.7986 48.6861,71.7986 C61.3871,71.7986 68.3881,60.8976 70.5881,47.9966 L72.2881,48.2976 C70.6871,62.4976 62.0871,76.0986 40.2861,76.0986" id="Fill-1" fill="#FFFFFF" sketch:type="MSShapeGroup"></path>
        <path d="M109.1855,40.397 C108.6855,33.997 107.3845,28.096 102.3845,28.096 C97.6845,28.096 96.2845,33.997 95.7845,40.397 C95.4845,43.997 95.3845,48.497 95.3845,51.098 C95.3845,53.997 95.4845,58.198 95.7845,61.998 C96.2845,68.398 97.6845,74.299 102.4855,74.299 C107.1855,74.299 108.6855,68.398 109.1855,61.998 C109.4855,58.198 109.5845,53.997 109.5845,51.098 C109.5845,48.397 109.4855,44.197 109.1855,40.397 M102.4855,75.899 C87.3835,75.899 75.4835,65.398 75.4835,51.197 C75.4835,36.897 87.6835,26.496 102.4855,26.496 C116.9855,26.496 129.4865,36.697 129.4865,51.197 C129.4865,65.798 116.5855,75.899 102.4855,75.899" id="Fill-3" fill="#FFFFFF" sketch:type="MSShapeGroup"></path>
        <path d="M194.2861,74.8994 L194.2861,73.2984 C199.1861,72.8994 198.7861,71.9994 199.0861,66.9994 C199.1861,65.4994 199.1861,63.7974 199.1861,62.3974 L199.1861,42.1964 C199.1861,41.0964 199.1861,39.4964 199.0861,38.0964 C198.8861,32.6964 197.7861,30.0964 194.2861,30.0964 C192.9851,30.0964 188.6851,30.7964 187.6851,38.3964 L187.6851,62.3974 C187.6851,63.7974 187.6851,65.3984 187.7851,66.9994 C188.0851,71.9994 187.8861,72.8994 191.9851,73.2984 L191.9851,74.8994 L163.5841,74.8994 L163.5841,73.2984 C168.3841,72.9994 168.0841,71.9994 168.3841,66.9994 C168.4841,65.4994 168.4841,63.7974 168.4841,62.3974 L168.4841,42.1964 C168.4841,41.0964 168.4841,39.4964 168.3841,38.0964 C168.1841,32.6964 167.0841,30.0964 163.5841,30.0964 C159.1831,30.0964 157.5841,34.5964 156.9831,36.9964 L156.9831,62.3974 C156.9831,63.7974 156.9831,65.4994 157.0841,66.9994 C157.3841,71.9994 157.1831,72.8994 161.2841,73.2984 L161.2841,74.8994 L131.3821,74.8994 L131.3821,73.2984 C131.7821,73.2984 132.7821,73.2984 133.5821,73.1984 C137.6821,72.6984 137.3831,71.3994 137.6821,66.9994 C137.7821,65.4994 137.7821,63.7974 137.7821,62.3974 L137.7821,38.4964 C137.7821,37.2964 137.7821,35.5964 137.6821,34.3964 C137.3831,30.8964 137.2821,29.6964 133.4821,29.2954 C132.8821,29.1964 131.5821,29.0964 131.1821,29.0964 L131.1821,27.4964 L156.5841,27.4964 L156.5841,34.8964 L156.6831,34.8964 C157.4831,31.0964 161.2841,26.4964 170.8851,26.4964 C177.9841,26.4964 184.0851,29.6964 186.8861,35.9964 C187.8861,32.1964 190.7851,26.4964 201.5861,26.4964 C210.2871,26.4964 218.3881,31.8964 218.3881,40.0964 L218.3881,62.3974 C218.3881,63.7974 218.3881,65.2974 218.4871,66.9994 C218.7871,71.3994 218.3881,72.6984 222.5881,73.1984 C223.0881,73.2984 223.9871,73.2984 224.3881,73.2984 L224.3881,74.8994 L194.2861,74.8994 Z" id="Fill-5" fill="#FFFFFF" sketch:type="MSShapeGroup"></path>
        <path d="M288.0859,74.8994 L288.0859,73.2984 C292.9859,72.8994 292.5869,71.9994 292.8869,66.9994 C292.9859,65.4994 292.9859,63.7974 292.9859,62.3974 L292.9859,42.1964 C292.9859,41.0964 292.9859,39.4964 292.8869,38.0964 C292.6869,32.6964 291.5869,30.0964 288.0859,30.0964 C286.7859,30.0964 282.4859,30.7964 281.4859,38.3964 L281.4859,62.3974 C281.4859,63.7974 281.4859,65.3984 281.5859,66.9994 C281.8859,71.9994 281.6859,72.8994 285.7859,73.2984 L285.7859,74.8994 L257.3849,74.8994 L257.3849,73.2984 C262.1849,72.9994 261.8849,71.9994 262.1849,66.9994 C262.2849,65.4994 262.2849,63.7974 262.2849,62.3974 L262.2849,42.1964 C262.2849,41.0964 262.2849,39.4964 262.1849,38.0964 C261.9839,32.6964 260.8849,30.0964 257.3849,30.0964 C252.9839,30.0964 251.3839,34.5964 250.7839,36.9964 L250.7839,62.3974 C250.7839,63.7974 250.7839,65.4994 250.8839,66.9994 C251.1839,71.9994 250.9829,72.8994 255.0839,73.2984 L255.0839,74.8994 L225.1829,74.8994 L225.1829,73.2984 C225.5819,73.2984 226.5819,73.2984 227.3829,73.1984 C231.4819,72.6984 231.1829,71.3994 231.4819,66.9994 C231.5829,65.4994 231.5829,63.7974 231.5829,62.3974 L231.5829,38.4964 C231.5829,37.2964 231.5829,35.5964 231.4819,34.3964 C231.1829,30.8964 231.0829,29.6964 227.2819,29.2954 C226.6829,29.1964 225.3819,29.0964 224.9819,29.0964 L224.9819,27.4964 L250.3839,27.4964 L250.3839,34.8964 L250.4829,34.8964 C251.2839,31.0964 255.0839,26.4964 264.6849,26.4964 C271.7849,26.4964 277.8859,29.6964 280.6859,35.9964 C281.6859,32.1964 284.5859,26.4964 295.3869,26.4964 C304.0869,26.4964 312.1879,31.8964 312.1879,40.0964 L312.1879,62.3974 C312.1879,63.7974 312.1879,65.2974 312.2879,66.9994 C312.5879,71.3994 312.1879,72.6984 316.3879,73.1984 C316.8879,73.2984 317.7879,73.2984 318.1889,73.2984 L318.1889,74.8994 L288.0859,74.8994 Z" id="Fill-7" fill="#FFFFFF" sketch:type="MSShapeGroup"></path>
        <path d="M352.084,40.4971 C351.484,32.9971 350.383,28.0961 345.383,28.0961 C340.783,28.0961 339.783,33.3961 339.184,40.4971 C338.982,42.7971 338.982,45.2971 338.982,46.8971 L352.283,46.8971 C352.283,44.6971 352.283,42.9971 352.084,40.4971 M346.283,75.8991 C331.182,75.8991 319.282,66.9991 319.282,51.1971 C319.282,36.2961 331.682,26.4961 345.984,26.4961 C362.285,26.4961 369.686,37.2971 369.686,48.8971 L338.982,48.8971 C339.084,52.6981 339.584,58.7981 341.482,63.1981 C343.482,67.7981 347.283,71.2991 353.184,71.2991 C362.184,71.2991 366.186,64.8981 368.285,59.1981 L369.885,59.8971 C366.186,69.8981 357.584,75.8991 346.283,75.8991" id="Fill-9" fill="#FFFFFF" sketch:type="MSShapeGroup"></path>
        <path d="M404.2832,74.8994 L404.2832,73.2984 C409.4842,73.0984 409.1832,71.8994 409.4842,66.9994 C409.5842,65.5984 409.5842,64.0984 409.5842,62.3974 L409.5842,41.9974 C409.5842,40.8974 409.5842,39.2964 409.4842,37.8964 C409.2852,32.4964 407.5842,30.1964 403.9842,30.1964 C399.4842,30.1964 397.3832,34.8964 396.6832,37.0964 L396.6832,62.3974 C396.6832,64.0984 396.6832,65.3984 396.7832,66.9994 C397.0842,71.9994 396.8832,73.0984 401.9842,73.2984 L401.9842,74.8994 L370.8832,74.8994 L370.8832,73.2984 C371.3832,73.2984 372.7812,73.1984 373.2812,73.1984 C377.3832,72.7984 377.0822,71.3994 377.3832,66.9994 C377.4822,65.4994 377.4822,63.9984 377.4822,62.3974 L377.4822,38.4964 C377.4822,37.2964 377.4822,35.5964 377.3832,34.3964 C377.0822,30.8964 377.0822,29.7964 373.1812,29.2954 C372.5822,29.1964 371.3832,29.0964 370.8832,29.0964 L370.8832,27.4964 L396.2832,27.4964 L396.2832,34.9964 L396.3832,34.9964 C397.4842,31.4964 401.0842,26.4964 411.2852,26.4964 C420.7852,26.4964 428.7852,32.7964 428.7852,39.8974 L428.7852,62.3974 C428.7852,64.0984 428.7852,65.5984 428.8852,66.9994 C429.1852,71.3994 428.8852,72.7984 432.9862,73.1984 C433.5862,73.2984 434.6852,73.2984 435.1852,73.2984 L435.1852,74.8994 L404.2832,74.8994 Z" id="Fill-11" fill="#FFFFFF" sketch:type="MSShapeGroup"></path>
        <path d="M458.584,75.8994 C450.283,75.8994 441.082,71.3994 441.082,62.1984 L441.082,31.2964 L434.281,31.2964 L434.281,28.5964 C438.982,27.2954 444.283,23.5954 448.684,19.2954 C453.084,14.9954 456.084,10.5954 457.482,7.5944 L460.283,7.5944 L460.283,27.4964 L473.385,27.4964 L471.984,31.2964 L460.283,31.2964 L460.283,58.4984 C460.283,59.5984 460.383,62.1984 460.484,63.5984 C460.883,69.6984 463.684,72.2984 467.184,72.2984 C472.885,72.2984 474.584,65.9994 474.584,61.7974 L476.084,61.7974 C475.984,66.3984 475.285,75.8994 458.584,75.8994" id="Fill-13" fill="#FFFFFF" sketch:type="MSShapeGroup"></path>
        <path d="M504.584,47.8975 L504.383,47.7975 C502.783,49.9975 499.584,49.9975 497.584,52.0975 C496.084,53.5975 495.482,57.9985 495.482,61.7975 C495.482,65.9995 495.684,71.6985 499.383,71.6985 C502.084,71.6985 504.184,68.8985 504.584,66.9995 L504.584,47.8975 Z M528.484,72.4995 C525.686,74.9995 522.186,75.7985 517.484,75.7985 C511.984,75.7985 506.885,72.7985 505.783,67.8985 L505.684,67.8985 C503.684,73.1985 498.484,75.8995 490.684,75.8995 C482.283,75.8995 476.281,71.0985 476.281,62.6985 C476.281,55.7975 480.182,51.8975 485.783,50.3975 C489.783,49.3975 494.184,49.9975 499.783,48.4975 C502.584,47.7975 504.383,47.0975 504.584,44.5975 C504.584,40.9975 504.584,36.8965 504.484,35.4965 C504.283,30.7965 503.484,28.1965 499.283,28.1965 C496.783,28.1965 494.584,29.6965 494.584,31.3965 C494.584,34.1965 498.883,33.1965 498.883,39.0965 C498.883,42.5975 496.184,46.9975 487.184,46.9975 C482.883,46.9975 478.682,44.4975 478.682,40.1965 C478.682,31.4965 490.283,26.5965 502.184,26.5965 C510.684,26.5965 523.885,29.9965 523.885,40.2965 L523.885,63.1985 C523.885,66.1985 524.086,69.8985 526.984,69.8985 C530.586,69.8985 531.285,63.9985 531.285,59.8975 L532.686,59.8975 C532.686,66.0985 531.285,69.9995 528.484,72.4995 L528.484,72.4995 Z" id="Fill-15" fill="#FFFFFF" sketch:type="MSShapeGroup"></path>
        <path d="M571.2832,48.8975 C566.2832,48.8975 561.9822,44.6975 561.9822,40.1965 C561.9822,34.8965 564.8832,33.0965 564.8832,31.6965 C564.8832,31.3965 564.6832,30.9965 563.8832,30.9965 C560.0822,30.9965 557.3832,37.2965 557.3832,40.1965 L557.3832,62.9985 C557.3832,64.3985 557.3832,66.3985 557.4822,67.9995 C557.6832,71.4995 557.7832,72.6985 561.6832,73.0985 C562.5842,73.1985 563.7832,73.2985 564.6832,73.2985 L564.6832,74.8995 L531.2812,74.8995 L531.2812,73.2985 C531.8812,73.2985 533.3812,73.2985 533.9802,73.1985 C538.0822,72.7985 537.7812,71.3995 538.0822,66.9995 C538.1812,65.2975 538.1812,63.7975 538.1812,62.3975 L538.1812,38.4965 C538.1812,37.2965 538.1812,35.8965 538.0822,34.3965 C537.7812,30.8965 537.6812,29.6965 533.8812,29.2955 C533.0822,29.1965 531.7812,29.0965 531.2812,29.0965 L531.2812,27.4965 L557.1832,27.4965 L557.1832,35.7965 L557.2832,35.7965 C558.4822,32.2965 562.0842,26.8965 570.6832,26.8965 C577.2832,26.8965 582.1832,32.1965 582.1832,38.1965 C582.1832,44.1975 577.3852,48.8975 571.2832,48.8975" id="Fill-17" fill="#FFFFFF" sketch:type="MSShapeGroup"></path>
        <path d="M629.9824,29.4961 C627.6814,29.8961 626.3824,31.5961 624.3824,36.3961 C621.6814,42.8971 614.7814,61.8971 608.2814,75.6991 C601.7814,89.8001 597.5804,98.0011 587.6794,98.0011 C582.6794,98.0011 576.9784,94.3001 576.9784,88.3001 C576.9784,82.8991 580.9804,78.6991 586.5804,78.6991 C592.5804,78.6991 595.6794,82.6991 595.6794,86.9991 C595.6794,92.2001 591.7814,92.8991 591.7814,94.6001 C591.7814,94.9001 591.8804,95.2001 592.2814,95.2001 C593.0804,95.2001 595.7814,94.0001 597.9804,91.0001 C601.3804,86.3991 603.1814,82.6001 605.0824,78.1991 C598.1814,61.9981 588.0804,38.3961 586.1794,34.2961 C584.6794,31.1961 583.9804,29.7961 582.0804,29.3961 C581.3784,29.2961 578.7794,29.0961 578.1794,29.0961 L578.1794,27.4961 L610.8804,27.4961 L610.8804,29.0961 C610.3804,29.0961 608.3804,29.1961 607.6814,29.2961 C606.5824,29.4961 606.0824,30.2961 606.0824,31.2961 C606.0824,32.4961 606.6814,34.3961 607.2814,35.8961 C608.5824,39.1971 612.5824,48.7971 615.1814,54.8971 C617.7814,48.3971 621.1814,39.1971 621.7814,37.4961 C622.6814,34.7961 623.0824,32.9961 623.0824,31.8961 C623.0824,29.6961 621.7814,29.4961 620.1814,29.2961 C619.3824,29.1961 617.3824,29.0961 616.9824,29.0961 L616.9824,27.4961 L633.6834,27.4961 L633.6834,29.0961 C633.3824,29.0961 631.0824,29.2961 629.9824,29.4961" id="Fill-19" fill="#FFFFFF" sketch:type="MSShapeGroup"></path>
    </g>
</svg>